<svg width="39" height="32" viewBox="0 0 39 32" fill="none" xmlns="http://www.w3.org/2000/svg">
<path d="M4.45508 9.33333L3.00051 7.81866L1.42325 9.33333L3.00051 10.848L4.45508 9.33333ZM32.9005 13C32.9005 14.1598 33.8407 15.1 35.0005 15.1C36.1603 15.1 37.1005 14.1598 37.1005 13H32.9005ZM10.6369 0.485327L3.00051 7.81866L5.90965 10.848L13.546 3.51467L10.6369 0.485327ZM3.00051 10.848L10.6369 18.1813L13.546 15.152L5.90965 7.81866L3.00051 10.848ZM4.45508 11.4333H33.0005V7.23333H4.45508V11.4333ZM32.9005 11.3333V13H37.1005V11.3333H32.9005ZM33.0005 11.4333C32.9453 11.4333 32.9005 11.3886 32.9005 11.3333H37.1005C37.1005 9.06897 35.2649 7.23333 33.0005 7.23333V11.4333Z" fill="white"/>
<path d="M35 23.3334L36.3921 21.7611L38.1678 23.3334L36.3921 24.9057L35 23.3334ZM5 23.3334L5 21.2334L5 23.3334ZM0.900002 20.0001C0.900002 18.8403 1.8402 17.9001 3 17.9001C4.1598 17.9001 5.1 18.8403 5.1 20.0001L0.900002 20.0001ZM28.8627 15.0945L36.3921 21.7611L33.6079 24.9057L26.0785 18.239L28.8627 15.0945ZM36.3921 24.9057L28.8627 31.5723L26.0785 28.4278L33.6079 21.7611L36.3921 24.9057ZM35 25.4334L5 25.4334L5 21.2334L35 21.2334L35 25.4334ZM0.900002 21.3334L0.900002 20.0001L5.1 20.0001L5.1 21.3334L0.900002 21.3334ZM5 25.4334C2.73563 25.4334 0.900002 23.5978 0.900002 21.3334L5.1 21.3334C5.1 21.2782 5.05523 21.2334 5 21.2334L5 25.4334Z" fill="white"/>
</svg>
