<svg width="31" height="29" viewBox="0 0 31 29" fill="none" xmlns="http://www.w3.org/2000/svg">
<rect width="31" height="29" fill="#F5F5F5"/>
<g id="Quest 3">
<g id="Send Screen">
<g id="Pixel 4 XL">
<g id="Device">
<path id="Vector" d="M-248 23.6103L-247.997 24.0526L-247.99 24.4958L-247.978 24.9418L-247.96 25.3888L-247.938 25.8376L-247.91 26.2884L-247.877 26.7411L-247.838 27.1948L-247.795 27.6494L-247.746 28.1069L-247.691 28.5643L-247.631 29.0237L-247.566 29.483L-247.495 29.9443L-247.418 30.4065L-247.335 30.8687L-247.247 31.3319L-247.152 31.796L-247.052 32.261L-246.945 32.7251L-246.833 33.1902L-246.716 33.6553L-246.592 34.1213L-246.462 34.5863L-246.326 35.0514L-246.184 35.5164L-246.035 35.9806L-245.881 36.4447L-245.721 36.9078L-245.554 37.371L-245.382 37.8322L-245.202 38.2935L-245.017 38.7529L-244.826 39.2122L-244.628 39.6687L-244.425 40.1252L-244.215 40.5788L-243.998 41.0316L-243.777 41.4824L-243.548 41.9312L-243.314 42.3783L-243.074 42.8224L-242.827 43.2656L-242.574 43.705L-242.316 44.1424L-242.052 44.5771L-241.781 45.0088L-241.505 45.4387L-241.222 45.8648L-240.935 46.287L-240.641 46.7074L-240.342 47.123L-240.037 47.5358L-239.726 47.9457L-239.41 48.3508L-239.089 48.7522L-238.762 49.1506L-238.429 49.5444L-238.092 49.9343L-237.749 50.3195L-237.401 50.6999L-237.049 51.0765L-236.692 51.4494L-236.329 51.8164L-235.962 52.1788L-235.591 52.5373L-235.214 52.8901L-234.833 53.2383L-234.449 53.5806L-234.059 53.9192L-233.666 54.2511L-233.269 54.5783L-232.867 54.9007L-232.462 55.2174L-232.054 55.5274L-231.641 55.8337L-231.225 56.1332L-230.806 56.4271L-230.384 56.7153L-229.958 56.9977L-229.529 57.2745L-229.097 57.5446L-228.663 57.8099L-228.226 58.0686L-227.787 58.3216L-227.345 58.5679L-226.901 58.8085L-226.454 59.0434L-226.006 59.2717L-225.556 59.4942L-225.104 59.7101L-224.65 59.9203L-224.195 60.1247L-223.738 60.3226L-223.28 60.5137L-222.82 60.6992L-222.36 60.878L-221.899 61.0511L-221.437 61.2185L-220.973 61.3783L-220.511 61.5333L-220.046 61.6816L-219.582 61.8243L-219.117 61.9603L-218.652 62.0906L-218.188 62.2142L-217.723 62.3322L-217.259 62.4444L-216.794 62.5509L-216.33 62.6507L-215.867 62.7449L-215.403 62.8333L-214.942 62.917L-214.48 62.9941L-214.02 63.0654L-213.56 63.131L-213.101 63.1909L-212.644 63.2451L-212.188 63.2946L-211.733 63.3383L-211.28 63.3764L-210.828 63.4097L-210.378 63.4373L-209.929 63.4601L-209.483 63.4772L-209.037 63.4896L-208.594 63.4972L-208.153 63.5H27.1537L27.5945 63.4972L28.0381 63.4896L28.4828 63.4772L28.9293 63.4601L29.3786 63.4373L29.829 63.4097L30.2802 63.3764L30.7334 63.3383L31.1885 63.2946L31.6445 63.2451L32.1024 63.1909L32.5603 63.131L33.0201 63.0654L33.4809 62.9941L33.9417 62.917L34.4043 62.8333L34.867 62.7449L35.3306 62.6507L35.7942 62.5509L36.2588 62.4444L36.7233 62.3322L37.1879 62.2142L37.6525 62.0906L38.118 61.9603L38.5826 61.8243L39.0462 61.6816L39.5108 61.5333L39.9744 61.3783L40.4371 61.2185L40.8988 61.0511L41.3605 60.878L41.8213 60.6992L42.2801 60.5137L42.738 60.3226L43.195 60.1247L43.6501 59.9203L44.1042 59.7101L44.5564 59.4942L45.0067 59.2717L45.4551 59.0434L45.9016 58.8085L46.3453 58.5679L46.7871 58.3216L47.2269 58.0686L47.664 57.8099L48.0981 57.5446L48.5294 57.2745L48.9579 56.9977L49.3835 56.7153L49.8063 56.4271L50.2252 56.1332L50.6414 55.8337L51.0537 55.5274L51.4622 55.2174L51.8679 54.9007L52.2688 54.5783L52.6659 54.2511L53.0592 53.9192L53.4487 53.5806L53.8335 53.2383L54.2144 52.8901L54.5906 52.5373L54.9621 52.1788L55.3298 51.8164L55.6917 51.4494L56.049 51.0765L56.4014 50.6999L56.7491 50.3195L57.0921 49.9343L57.4294 49.5444L57.7619 49.1506L58.0887 48.7522L58.4098 48.3508L58.7261 47.9457L59.0368 47.5358L59.3418 47.123L59.641 46.7074L59.9346 46.287L60.2225 45.8648L60.5046 45.4387L60.7811 45.0088L61.0518 44.5771L61.3159 44.1424L61.5753 43.705L61.8271 43.2656L62.0741 42.8224L62.3144 42.3783L62.5491 41.9312L62.7771 41.4824L62.9994 41.0316L63.2151 40.5788L63.425 40.1252L63.6283 39.6687L63.8259 39.2122L64.0178 38.7529L64.2021 38.2935L64.3817 37.8322L64.5546 37.371L64.7209 36.9078L64.8814 36.4447L65.0353 35.9806L65.1835 35.5164L65.3261 35.0514L65.4619 34.5863L65.5921 34.1213L65.7165 33.6553L65.8343 33.1902L65.9464 32.7251L66.0519 32.261L66.1526 31.796L66.2466 31.3319L66.335 30.8687L66.4176 30.4065L66.4946 29.9443L66.5658 29.483L66.6314 29.0237L66.6922 28.5643L66.7463 28.1069L66.7958 27.6494L66.8394 27.1948L66.8775 26.7411L66.9107 26.2884L66.9383 25.8376L66.961 25.3888L66.9781 24.9418L66.9905 24.4958L66.9981 24.0526L67 23.6103V-570.11L66.9981 -570.553L66.9905 -570.996L66.9781 -571.442L66.961 -571.889L66.9383 -572.338L66.9107 -572.788L66.8775 -573.241L66.8394 -573.695L66.7958 -574.15L66.7463 -574.607L66.6922 -575.064L66.6314 -575.524L66.5658 -575.984L66.4946 -576.444L66.4176 -576.906L66.335 -577.369L66.2466 -577.833L66.1526 -578.296L66.0519 -578.761L65.9464 -579.226L65.8343 -579.691L65.7165 -580.156L65.5921 -580.621L65.4619 -581.086L65.3261 -581.551L65.1835 -582.016L65.0353 -582.481L64.8814 -582.945L64.7209 -583.409L64.5546 -583.871L64.3817 -584.333L64.2021 -584.793L64.0178 -585.254L63.8259 -585.712L63.6283 -586.17L63.425 -586.625L63.2151 -587.08L62.9994 -587.533L62.7771 -587.982L62.5491 -588.431L62.3144 -588.878L62.0741 -589.323L61.8271 -589.766L61.5753 -590.205L61.3159 -590.642L61.0518 -591.077L60.7811 -591.51L60.5046 -591.939L60.2225 -592.365L59.9346 -592.788L59.641 -593.207L59.3418 -593.624L59.0368 -594.037L58.7261 -594.446L58.4098 -594.851L58.0887 -595.253L57.7619 -595.651L57.4294 -596.044L57.0921 -596.434L56.7491 -596.819L56.4014 -597.201L56.049 -597.577L55.6917 -597.949L55.3298 -598.316L54.9621 -598.68L54.5906 -599.037L54.2144 -599.39L53.8335 -599.738L53.4487 -600.082L53.0592 -600.419L52.6659 -600.752L52.2688 -601.079L51.8679 -601.401L51.4622 -601.717L51.0537 -602.028L50.6414 -602.334L50.2252 -602.633L49.8063 -602.927L49.3835 -603.215L48.9579 -603.498L48.5294 -603.774L48.0981 -604.046L47.664 -604.31L47.2269 -604.569L46.7871 -604.822L46.3453 -605.069L45.9016 -605.309L45.4551 -605.543L45.0067 -605.773L44.5564 -605.994L44.1042 -606.211L43.6501 -606.421L43.195 -606.625L42.738 -606.823L42.2801 -607.014L41.8213 -607.199L41.3605 -607.379L40.8988 -607.551L40.4371 -607.718L39.9744 -607.879L39.5108 -608.033L39.0462 -608.182L38.5826 -608.324L38.118 -608.46L37.6525 -608.591L37.1879 -608.714L36.7233 -608.832L36.2588 -608.944L35.7942 -609.051L35.3306 -609.151L34.867 -609.246L34.4043 -609.334L33.9417 -609.417L33.4809 -609.494L33.0201 -609.565L32.5603 -609.631L32.1024 -609.691L31.6445 -609.746L31.1885 -609.795L30.7334 -609.838L30.2802 -609.877L29.829 -609.91L29.3786 -609.938L28.9293 -609.96L28.4828 -609.978L28.0381 -609.99L27.5945 -609.997L27.1537 -610H-208.153L-208.594 -609.997L-209.037 -609.99L-209.483 -609.978L-209.929 -609.96L-210.378 -609.938L-210.828 -609.91L-211.28 -609.877L-211.733 -609.838L-212.188 -609.795L-212.644 -609.746L-213.101 -609.691L-213.56 -609.631L-214.02 -609.565L-214.48 -609.494L-214.942 -609.417L-215.403 -609.334L-215.867 -609.246L-216.33 -609.151L-216.794 -609.051L-217.259 -608.944L-217.723 -608.832L-218.188 -608.714L-218.652 -608.591L-219.117 -608.46L-219.582 -608.324L-220.046 -608.182L-220.511 -608.033L-220.973 -607.879L-221.437 -607.718L-221.899 -607.551L-222.36 -607.379L-222.82 -607.199L-223.28 -607.014L-223.738 -606.823L-224.195 -606.625L-224.65 -606.421L-225.104 -606.211L-225.556 -605.994L-226.006 -605.773L-226.454 -605.543L-226.901 -605.309L-227.345 -605.069L-227.787 -604.822L-228.226 -604.569L-228.663 -604.31L-229.097 -604.046L-229.529 -603.774L-229.958 -603.498L-230.384 -603.215L-230.806 -602.927L-231.225 -602.633L-231.641 -602.334L-232.054 -602.028L-232.462 -601.717L-232.867 -601.401L-233.269 -601.079L-233.666 -600.752L-234.059 -600.419L-234.449 -600.082L-234.833 -599.738L-235.214 -599.39L-235.591 -599.037L-235.962 -598.68L-236.329 -598.316L-236.692 -597.949L-237.049 -597.577L-237.401 -597.201L-237.749 -596.819L-238.092 -596.434L-238.429 -596.044L-238.762 -595.651L-239.089 -595.253L-239.41 -594.851L-239.726 -594.446L-240.037 -594.037L-240.342 -593.624L-240.641 -593.207L-240.935 -592.788L-241.222 -592.365L-241.505 -591.939L-241.781 -591.51L-242.052 -591.077L-242.316 -590.642L-242.574 -590.205L-242.827 -589.766L-243.074 -589.323L-243.314 -588.878L-243.548 -588.431L-243.777 -587.982L-243.998 -587.533L-244.215 -587.08L-244.425 -586.625L-244.628 -586.17L-244.826 -585.712L-245.017 -585.254L-245.202 -584.793L-245.382 -584.333L-245.554 -583.871L-245.721 -583.409L-245.881 -582.945L-246.035 -582.481L-246.184 -582.016L-246.326 -581.551L-246.462 -581.086L-246.592 -580.621L-246.716 -580.156L-246.833 -579.691L-246.945 -579.226L-247.052 -578.761L-247.152 -578.296L-247.247 -577.833L-247.335 -577.369L-247.418 -576.906L-247.495 -576.444L-247.566 -575.984L-247.631 -575.524L-247.691 -575.064L-247.746 -574.607L-247.795 -574.15L-247.838 -573.695L-247.877 -573.241L-247.91 -572.788L-247.938 -572.338L-247.96 -571.889L-247.978 -571.442L-247.99 -570.996L-247.997 -570.553L-248 -570.11V23.6103Z" stroke="black" stroke-width="1.5" stroke-miterlimit="10" stroke-linecap="round" stroke-linejoin="round"/>
</g>
<g id="Depth">
<g id="POLYLINE 173">
<path id="Vector_2" d="M-243.5 23.3415L-243.498 23.7368L-243.491 24.133L-243.48 24.5311L-243.465 24.9312L-243.444 25.3331L-243.419 25.7359L-243.39 26.1398L-243.356 26.5455L-243.317 26.9521L-243.273 27.3607L-243.225 27.7703L-243.171 28.1798L-243.112 28.5913L-243.049 29.0036L-242.979 29.416L-242.906 29.8302L-242.827 30.2446L-242.742 30.6588L-242.653 31.0741L-242.558 31.4893L-242.459 31.9055L-242.354 32.3216L-242.243 32.7369L-242.126 33.1531L-242.005 33.5692L-241.878 33.9845L-241.746 34.3997L-241.608 34.8149L-241.464 35.2292L-241.315 35.6425L-241.162 36.0549L-241.002 36.4673L-240.837 36.8778L-240.666 37.2882L-240.49 37.6969L-240.308 38.1045L-240.12 38.5102L-239.927 38.915L-239.729 39.3179L-239.525 39.7189L-239.316 40.1188L-239.101 40.5161L-238.881 40.9113L-238.655 41.3047L-238.425 41.6962L-238.189 42.0848L-237.947 42.4706L-237.7 42.8545L-237.448 43.2346L-237.191 43.6127L-236.928 43.988L-236.661 44.3605L-236.389 44.7292L-236.112 45.095L-235.83 45.458L-235.542 45.8171L-235.25 46.1725L-234.953 46.5241L-234.653 46.8728L-234.347 47.2177L-234.037 47.5579L-233.721 47.8942L-233.402 48.2268L-233.078 48.5556L-232.751 48.8796L-232.419 49.1998L-232.082 49.5153L-231.743 49.8269L-231.399 50.1328L-231.052 50.435L-230.7 50.7324L-230.345 51.0251L-229.987 51.313L-229.626 51.5952L-229.261 51.8736L-228.892 52.1463L-228.52 52.4142L-228.147 52.6775L-227.769 52.935L-227.389 53.1877L-227.006 53.4348L-226.621 53.6761L-226.233 53.9136L-225.843 54.1446L-225.45 54.3707L-225.056 54.5911L-224.66 54.8068L-224.261 55.0159L-223.86 55.2201L-223.458 55.4188L-223.055 55.6126L-222.649 55.8007L-222.243 55.9822L-221.835 56.1589L-221.426 56.33L-221.016 56.4962L-220.605 56.6559L-220.193 56.8108L-219.78 56.9599L-219.367 57.1034L-218.953 57.2421L-218.538 57.3742L-218.124 57.5015L-217.709 57.6231L-217.294 57.7401L-216.879 57.8502L-216.464 57.9557L-216.049 58.0565L-215.634 58.1515L-215.22 58.2408L-214.806 58.3253L-214.393 58.4042L-213.981 58.4783L-213.568 58.5477L-213.158 58.6114L-212.747 58.6703L-212.337 58.7235L-211.929 58.7729L-211.522 58.8166L-211.115 58.8555L-210.711 58.8897L-210.307 58.9192L-209.905 58.9439L-209.504 58.9639L-209.106 58.98L-208.708 58.9905L-208.313 58.9971L-207.918 59H26.9191L27.3126 58.9971L27.7089 58.9905L28.1062 58.98L28.5054 58.9639L28.9055 58.9439L29.3075 58.9192L29.7114 58.8897L30.1163 58.8555L30.5221 58.8166L30.9298 58.7729L31.3375 58.7235L31.7471 58.6703L32.1576 58.6114L32.5691 58.5477L32.9806 58.4783L33.393 58.4042L33.8064 58.3253L34.2208 58.2408L34.6351 58.1515L35.0494 58.0565L35.4638 57.9557L35.8791 57.8502L36.2943 57.7401L36.7096 57.6231L37.124 57.5015L37.5393 57.3742L37.9536 57.2421L38.367 57.1034L38.7804 56.9599L39.1928 56.8108L39.6053 56.6559L40.0158 56.4962L40.4263 56.33L40.835 56.1589L41.2436 55.9822L41.6494 55.8007L42.0553 55.6126L42.4592 55.4188L42.8612 55.2201L43.2613 55.0159L43.6595 54.8068L44.0568 54.5911L44.4512 54.3707L44.8437 54.1446L45.2334 53.9136L45.6212 53.6761L46.0062 53.4348L46.3892 53.1877L46.7694 52.935L47.1468 52.6775L47.5213 52.4142L47.892 52.1463L48.2608 51.8736L48.6259 51.5952L48.9871 51.313L49.3455 51.0251L49.7011 50.7324L50.0519 50.435L50.3998 50.1328L50.7431 49.8269L51.0835 49.5153L51.4191 49.1998L51.7509 48.8796L52.079 48.5556L52.4023 48.2268L52.7218 47.8942L53.0366 47.5579L53.3467 47.2177L53.6529 46.8728L53.9544 46.5241L54.2502 46.1725L54.5423 45.8171L54.8295 45.458L55.1121 45.095L55.3889 44.7292L55.662 44.3605L55.9294 43.988L56.1911 43.6127L56.448 43.2346L56.7002 42.8545L56.9467 42.4706L57.1885 42.0848L57.4246 41.6962L57.6559 41.3047L57.8816 40.9113L58.1016 40.5161L58.3159 40.1188L58.5254 39.7189L58.7293 39.3179L58.9274 38.915L59.1199 38.5102L59.3076 38.1045L59.4897 37.6969L59.666 37.2882L59.8367 36.8778L60.0016 36.4673L60.1619 36.0549L60.3164 35.6425L60.4653 35.2292L60.6085 34.8149L60.7459 34.3997L60.8787 33.9845L61.0057 33.5692L61.1271 33.1531L61.2428 32.7369L61.3537 32.3216L61.459 31.9055L61.5585 31.4893L61.6533 31.0741L61.7434 30.6588L61.8268 30.2446L61.9065 29.8302L61.9804 29.416L62.0487 29.0036L62.1122 28.5913L62.171 28.1798L62.225 27.7703L62.2734 27.3607L62.317 26.9521L62.3559 26.5455L62.391 26.1398L62.4204 25.7359L62.445 25.3331L62.4649 24.9312L62.4801 24.5311L62.4915 24.133L62.4981 23.7368L62.5 23.3415V-569.841L62.4981 -570.237L62.4915 -570.633L62.4801 -571.032L62.4649 -571.431L62.445 -571.833L62.4204 -572.236L62.391 -572.641L62.3559 -573.046L62.317 -573.453L62.2734 -573.861L62.225 -574.27L62.171 -574.681L62.1122 -575.092L62.0487 -575.504L61.9804 -575.917L61.9065 -576.33L61.8268 -576.745L61.7434 -577.159L61.6533 -577.574L61.5585 -577.99L61.459 -578.405L61.3537 -578.822L61.2428 -579.238L61.1271 -579.653L61.0057 -580.069L60.8787 -580.484L60.7459 -580.9L60.6085 -581.315L60.4653 -581.729L60.3164 -582.143L60.1619 -582.556L60.0016 -582.967L59.8367 -583.379L59.666 -583.788L59.4897 -584.197L59.3076 -584.604L59.1199 -585.011L58.9274 -585.415L58.7293 -585.818L58.5254 -586.22L58.3159 -586.619L58.1016 -587.016L57.8816 -587.411L57.6559 -587.805L57.4246 -588.196L57.1885 -588.585L56.9467 -588.971L56.7002 -589.354L56.448 -589.735L56.1911 -590.114L55.9294 -590.488L55.662 -590.861L55.3889 -591.23L55.1121 -591.596L54.8295 -591.958L54.5423 -592.317L54.2502 -592.673L53.9544 -593.025L53.6529 -593.373L53.3467 -593.718L53.0366 -594.058L52.7218 -594.395L52.4023 -594.728L52.079 -595.056L51.7509 -595.381L51.4191 -595.7L51.0835 -596.016L50.7431 -596.327L50.3998 -596.634L50.0519 -596.935L49.7011 -597.232L49.3455 -597.525L48.9871 -597.813L48.6259 -598.096L48.2608 -598.374L47.892 -598.646L47.5213 -598.914L47.1468 -599.177L46.7694 -599.435L46.3892 -599.688L46.0062 -599.935L45.6212 -600.177L45.2334 -600.414L44.8437 -600.645L44.4512 -600.871L44.0568 -601.091L43.6595 -601.307L43.2613 -601.517L42.8612 -601.721L42.4592 -601.92L42.0553 -602.113L41.6494 -602.301L41.2436 -602.483L40.835 -602.66L40.4263 -602.831L40.0158 -602.996L39.6053 -603.157L39.1928 -603.311L38.7804 -603.46L38.367 -603.604L37.9536 -603.742L37.5393 -603.874L37.124 -604.002L36.7096 -604.123L36.2943 -604.24L35.8791 -604.351L35.4638 -604.457L35.0494 -604.556L34.6351 -604.651L34.2208 -604.741L33.8064 -604.825L33.393 -604.905L32.9806 -604.978L32.5691 -605.048L32.1576 -605.111L31.7471 -605.17L31.3375 -605.224L30.9298 -605.273L30.5221 -605.317L30.1163 -605.356L29.7114 -605.39L29.3075 -605.419L28.9055 -605.444L28.5054 -605.465L28.1062 -605.48L27.7089 -605.491L27.3126 -605.498L26.9191 -605.5H-207.918L-208.313 -605.498L-208.708 -605.491L-209.106 -605.48L-209.504 -605.465L-209.905 -605.444L-210.307 -605.419L-210.711 -605.39L-211.115 -605.356L-211.522 -605.317L-211.929 -605.273L-212.337 -605.224L-212.747 -605.17L-213.158 -605.111L-213.568 -605.048L-213.981 -604.978L-214.393 -604.905L-214.806 -604.825L-215.22 -604.741L-215.634 -604.651L-216.049 -604.556L-216.464 -604.457L-216.879 -604.351L-217.294 -604.24L-217.709 -604.123L-218.124 -604.002L-218.538 -603.874L-218.953 -603.742L-219.367 -603.604L-219.78 -603.46L-220.193 -603.311L-220.605 -603.157L-221.016 -602.996L-221.426 -602.831L-221.835 -602.66L-222.243 -602.483L-222.649 -602.301L-223.055 -602.113L-223.458 -601.92L-223.86 -601.721L-224.261 -601.517L-224.66 -601.307L-225.056 -601.091L-225.45 -600.871L-225.843 -600.645L-226.233 -600.414L-226.621 -600.177L-227.006 -599.935L-227.389 -599.688L-227.769 -599.435L-228.147 -599.177L-228.52 -598.914L-228.892 -598.646L-229.261 -598.374L-229.626 -598.096L-229.987 -597.813L-230.345 -597.525L-230.7 -597.232L-231.052 -596.935L-231.399 -596.634L-231.743 -596.327L-232.082 -596.016L-232.419 -595.7L-232.751 -595.381L-233.078 -595.056L-233.402 -594.728L-233.721 -594.395L-234.037 -594.058L-234.347 -593.718L-234.653 -593.373L-234.953 -593.025L-235.25 -592.673L-235.542 -592.317L-235.83 -591.958L-236.112 -591.596L-236.389 -591.23L-236.661 -590.861L-236.928 -590.488L-237.191 -590.114L-237.448 -589.735L-237.7 -589.354L-237.947 -588.971L-238.189 -588.585L-238.425 -588.196L-238.655 -587.805L-238.881 -587.411L-239.101 -587.016L-239.316 -586.619L-239.525 -586.22L-239.729 -585.818L-239.927 -585.415L-240.12 -585.011L-240.308 -584.604L-240.49 -584.197L-240.666 -583.788L-240.837 -583.379L-241.002 -582.967L-241.162 -582.556L-241.315 -582.143L-241.464 -581.729L-241.608 -581.315L-241.746 -580.9L-241.878 -580.484L-242.005 -580.069L-242.126 -579.653L-242.243 -579.238L-242.354 -578.822L-242.459 -578.405L-242.558 -577.99L-242.653 -577.574L-242.742 -577.159L-242.827 -576.745L-242.906 -576.33L-242.979 -575.917L-243.049 -575.504L-243.112 -575.092L-243.171 -574.681L-243.225 -574.27L-243.273 -573.861L-243.317 -573.453L-243.356 -573.046L-243.39 -572.641L-243.419 -572.236L-243.444 -571.833L-243.465 -571.431L-243.48 -571.032L-243.491 -570.633L-243.498 -570.237L-243.5 -569.841V23.3415Z" stroke="black" stroke-width="1.5" stroke-miterlimit="10" stroke-linecap="round" stroke-linejoin="round"/>
</g>
</g>
<g id="Screen">
<path id="Vector_3" d="M-212.951 39.5L-213.207 39.499L-213.463 39.4942L-213.72 39.4876L-213.979 39.4771L-214.238 39.4637L-214.499 39.4475L-214.761 39.4284L-215.022 39.4064L-215.285 39.3807L-215.549 39.352L-215.814 39.3206L-216.079 39.2852L-216.345 39.247L-216.611 39.2059L-216.878 39.1611L-217.146 39.1133L-217.413 39.0618L-217.681 39.0064L-217.95 38.9482L-218.218 38.8871L-218.487 38.8213L-218.756 38.7525L-219.025 38.6809L-219.294 38.6055L-219.562 38.5262L-219.831 38.4432L-220.1 38.3573L-220.367 38.2676L-220.635 38.174L-220.903 38.0776L-221.169 37.9764L-221.436 37.8723L-221.701 37.7645L-221.967 37.6537L-222.23 37.5383L-222.493 37.4199L-222.756 37.2977L-223.017 37.1726L-223.278 37.0427L-223.537 36.9101L-223.796 36.7745L-224.053 36.6342L-224.308 36.491L-224.563 36.344L-224.815 36.1932L-225.067 36.0395L-225.316 35.8819L-225.564 35.7216L-225.81 35.5574L-226.055 35.3893L-226.297 35.2194L-226.538 35.0447L-226.776 34.8672L-227.012 34.6868L-227.247 34.5025L-227.478 34.3154L-227.709 34.1254L-227.936 33.9326L-228.162 33.7359L-228.384 33.5364L-228.604 33.334L-228.821 33.1297L-229.037 32.9216L-229.25 32.7107L-229.458 32.4968L-229.665 32.2811L-229.869 32.0615L-230.071 31.8401L-230.269 31.6167L-230.464 31.3904L-230.656 31.1613L-230.845 30.9303L-231.031 30.6964L-231.214 30.4606L-231.394 30.2229L-231.57 29.9833L-231.743 29.7408L-231.913 29.4974L-232.08 29.2521L-232.243 29.0038L-232.403 28.7546L-232.559 28.5036L-232.712 28.2507L-232.862 27.9967L-233.007 27.7409L-233.151 27.4841L-233.289 27.2253L-233.425 26.9657L-233.557 26.7051L-233.685 26.4435L-233.81 26.1801L-233.932 25.9166L-234.049 25.6512L-234.163 25.3858L-234.274 25.1194L-234.382 24.8522L-234.485 24.5839L-234.585 24.3157L-234.682 24.0474L-234.775 23.7772L-234.864 23.5081L-234.949 23.2379L-235.032 22.9677L-235.11 22.6976L-235.186 22.4274L-235.257 22.1573L-235.325 21.8862L-235.39 21.616L-235.451 21.3458L-235.509 21.0766L-235.563 20.8064L-235.615 20.5372L-235.663 20.2681L-235.708 19.9998L-235.748 19.7325L-235.786 19.4652L-235.822 19.1979L-235.853 18.9315L-235.881 18.6671L-235.907 18.4017L-235.929 18.1382L-235.948 17.8757L-235.964 17.6132L-235.977 17.3526L-235.987 17.093L-235.994 16.8333L-235.998 16.5755L-236 16.3196V-540.319L-235.998 -540.576L-235.994 -540.833L-235.987 -541.093L-235.977 -541.353L-235.964 -541.613L-235.948 -541.876L-235.929 -542.138L-235.907 -542.402L-235.881 -542.666L-235.853 -542.932L-235.822 -543.198L-235.786 -543.464L-235.748 -543.732L-235.708 -544L-235.663 -544.268L-235.615 -544.537L-235.563 -544.806L-235.509 -545.076L-235.451 -545.346L-235.39 -545.616L-235.325 -545.886L-235.257 -546.156L-235.186 -546.427L-235.11 -546.698L-235.032 -546.968L-234.949 -547.238L-234.864 -547.508L-234.775 -547.777L-234.682 -548.046L-234.585 -548.316L-234.485 -548.584L-234.382 -548.852L-234.274 -549.119L-234.163 -549.386L-234.049 -549.651L-233.932 -549.917L-233.81 -550.18L-233.685 -550.444L-233.557 -550.705L-233.425 -550.966L-233.289 -551.225L-233.151 -551.484L-233.007 -551.741L-232.862 -551.997L-232.712 -552.251L-232.559 -552.504L-232.403 -552.755L-232.243 -553.004L-232.08 -553.251L-231.913 -553.497L-231.743 -553.741L-231.57 -553.983L-231.394 -554.223L-231.214 -554.461L-231.031 -554.696L-230.845 -554.93L-230.656 -555.161L-230.464 -555.39L-230.269 -555.617L-230.071 -555.84L-229.869 -556.062L-229.665 -556.281L-229.458 -556.497L-229.25 -556.711L-229.037 -556.922L-228.821 -557.129L-228.604 -557.334L-228.384 -557.536L-228.162 -557.736L-227.936 -557.933L-227.709 -558.125L-227.478 -558.315L-227.247 -558.503L-227.012 -558.687L-226.776 -558.867L-226.538 -559.045L-226.297 -559.218L-226.055 -559.389L-225.81 -559.557L-225.564 -559.722L-225.316 -559.882L-225.067 -560.039L-224.815 -560.193L-224.563 -560.344L-224.308 -560.491L-224.053 -560.634L-223.796 -560.774L-223.537 -560.91L-223.278 -561.043L-223.017 -561.173L-222.756 -561.298L-222.493 -561.42L-222.23 -561.538L-221.967 -561.654L-221.701 -561.764L-221.436 -561.872L-221.169 -561.976L-220.903 -562.077L-220.635 -562.174L-220.367 -562.268L-220.1 -562.357L-219.831 -562.443L-219.562 -562.526L-219.294 -562.606L-219.025 -562.681L-218.756 -562.753L-218.487 -562.821L-218.218 -562.887L-217.95 -562.948L-217.681 -563.006L-217.413 -563.062L-217.146 -563.113L-216.878 -563.161L-216.611 -563.206L-216.345 -563.247L-216.079 -563.285L-215.814 -563.321L-215.549 -563.352L-215.285 -563.381L-215.022 -563.406L-214.761 -563.428L-214.499 -563.447L-214.238 -563.464L-213.979 -563.477L-213.72 -563.487L-213.463 -563.494L-213.207 -563.498L-212.951 -563.5H31.9514L32.2067 -563.498L32.463 -563.494L32.7211 -563.487L32.9793 -563.477L33.2385 -563.464L33.4995 -563.447L33.7605 -563.428L34.0225 -563.406L34.2854 -563.381L34.5493 -563.352L34.8141 -563.321L35.0789 -563.285L35.3456 -563.247L35.6114 -563.206L35.8781 -563.161L36.1458 -563.113L36.4134 -563.062L36.6811 -563.006L36.9497 -562.948L37.2183 -562.887L37.4869 -562.821L37.7555 -562.753L38.0251 -562.681L38.2937 -562.606L38.5623 -562.526L38.8309 -562.443L39.0996 -562.357L39.3672 -562.268L39.6349 -562.174L39.9026 -562.077L40.1693 -561.976L40.436 -561.872L40.7018 -561.764L40.9666 -561.654L41.2304 -561.538L41.4943 -561.42L41.7563 -561.298L42.0182 -561.173L42.2783 -561.043L42.5374 -560.91L42.7956 -560.774L43.0528 -560.634L43.3082 -560.491L43.5625 -560.344L43.815 -560.193L44.0665 -560.039L44.3162 -559.882L44.5639 -559.722L44.8098 -559.557L45.0546 -559.389L45.2967 -559.218L45.5378 -559.045L45.776 -558.867L46.0124 -558.687L46.2468 -558.503L46.4793 -558.315L46.709 -558.125L46.9369 -557.933L47.1618 -557.736L47.3839 -557.536L47.6041 -557.334L47.8224 -557.129L48.0369 -556.922L48.2495 -556.711L48.4593 -556.497L48.6662 -556.281L48.8693 -556.062L49.0706 -555.84L49.2689 -555.617L49.4644 -555.39L49.6562 -555.161L49.8451 -554.93L50.0311 -554.696L50.2143 -554.461L50.3937 -554.223L50.5703 -553.983L50.743 -553.741L50.9129 -553.497L51.08 -553.251L51.2432 -553.004L51.4026 -552.755L51.5593 -552.504L51.712 -552.251L51.862 -551.997L52.0082 -551.741L52.1506 -551.484L52.2892 -551.225L52.4249 -550.966L52.5568 -550.705L52.6859 -550.444L52.8103 -550.18L52.9318 -549.917L53.0495 -549.651L53.1643 -549.386L53.2744 -549.119L53.3817 -548.852L53.4851 -548.584L53.5848 -548.316L53.6816 -548.046L53.7746 -547.777L53.8638 -547.508L53.9493 -547.238L54.0318 -546.968L54.1106 -546.698L54.1856 -546.427L54.2568 -546.156L54.3252 -545.886L54.3906 -545.616L54.4514 -545.346L54.5092 -545.076L54.5643 -544.806L54.6156 -544.537L54.663 -544.268L54.7076 -544L54.7485 -543.732L54.7864 -543.464L54.8215 -543.198L54.8528 -542.932L54.8813 -542.666L54.907 -542.402L54.9288 -542.138L54.9478 -541.876L54.9639 -541.613L54.9772 -541.353L54.9877 -541.093L54.9943 -540.833L54.999 -540.576L55 -540.319V16.3196L54.999 16.5755L54.9943 16.8333L54.9877 17.093L54.9772 17.3526L54.9639 17.6132L54.9478 17.8757L54.9288 18.1382L54.907 18.4017L54.8813 18.6671L54.8528 18.9315L54.8215 19.1979L54.7864 19.4652L54.7485 19.7325L54.7076 19.9998L54.663 20.2681L54.6156 20.5372L54.5643 20.8064L54.5092 21.0766L54.4514 21.3458L54.3906 21.616L54.3252 21.8862L54.2568 22.1573L54.1856 22.4274L54.1106 22.6976L54.0318 22.9677L53.9493 23.2379L53.8638 23.5081L53.7746 23.7772L53.6816 24.0474L53.5848 24.3157L53.4851 24.5839L53.3817 24.8522L53.2744 25.1194L53.1643 25.3858L53.0495 25.6512L52.9318 25.9166L52.8103 26.1801L52.6859 26.4435L52.5568 26.7051L52.4249 26.9657L52.2892 27.2253L52.1506 27.4841L52.0082 27.7409L51.862 27.9967L51.712 28.2507L51.5593 28.5036L51.4026 28.7546L51.2432 29.0038L51.08 29.2521L50.9129 29.4974L50.743 29.7408L50.5703 29.9833L50.3937 30.2229L50.2143 30.4606L50.0311 30.6964L49.8451 30.9303L49.6562 31.1613L49.4644 31.3904L49.2689 31.6167L49.0706 31.8401L48.8693 32.0615L48.6662 32.2811L48.4593 32.4968L48.2495 32.7107L48.0369 32.9216L47.8224 33.1297L47.6041 33.334L47.3839 33.5364L47.1618 33.7359L46.9369 33.9326L46.709 34.1254L46.4793 34.3154L46.2468 34.5025L46.0124 34.6868L45.776 34.8672L45.5378 35.0447L45.2967 35.2194L45.0546 35.3893L44.8098 35.5574L44.5639 35.7216L44.3162 35.8819L44.0665 36.0395L43.815 36.1932L43.5625 36.344L43.3082 36.491L43.0528 36.6342L42.7956 36.7745L42.5374 36.9101L42.2783 37.0427L42.0182 37.1726L41.7563 37.2977L41.4943 37.4199L41.2304 37.5383L40.9666 37.6537L40.7018 37.7645L40.436 37.8723L40.1693 37.9764L39.9026 38.0776L39.6349 38.174L39.3672 38.2676L39.0996 38.3573L38.8309 38.4432L38.5623 38.5262L38.2937 38.6055L38.0251 38.6809L37.7555 38.7525L37.4869 38.8213L37.2183 38.8871L36.9497 38.9482L36.6811 39.0064L36.4134 39.0618L36.1458 39.1133L35.8781 39.1611L35.6114 39.2059L35.3456 39.247L35.0789 39.2852L34.8141 39.3206L34.5493 39.352L34.2854 39.3807L34.0225 39.4064L33.7605 39.4284L33.4995 39.4475L33.2385 39.4637L32.9793 39.4771L32.7211 39.4876L32.463 39.4942L32.2067 39.499L31.9514 39.5H-212.951Z" fill="#FBFBFB" stroke="black" stroke-width="1.5" stroke-miterlimit="10" stroke-linecap="round" stroke-linejoin="round"/>
</g>
</g>
<g id="Navbar Component">
<g id="Navbar Background">
<rect id="Navbar Pill" x="-230" y="-6" width="280" height="39" rx="19.5" fill="#A010A3"/>
</g>
<g id="Wallet Icon">
<path id="Vector_4" d="M4.93247 27.0427H25.4597C27.6316 27.0427 29.3922 25.2821 29.3922 23.1103V9.91416C29.3922 7.74232 27.6316 5.98169 25.4597 5.98169H4.93247C2.76062 5.98169 1 7.74231 1 9.91416V23.1103C1 25.2821 2.76063 27.0427 4.93247 27.0427Z" fill="white" stroke="white" stroke-width="2"/>
<path id="Vector_5" d="M20.0613 16.5129C20.0613 17.47 20.8373 18.246 21.7944 18.246C22.7515 18.246 23.5275 17.47 23.5275 16.5129C23.5275 15.5558 22.7515 14.7798 21.7944 14.7798C20.8373 14.7798 20.0613 15.5558 20.0613 16.5129Z" stroke="#A010A3" stroke-width="2" stroke-linecap="round" stroke-linejoin="round"/>
<g id="Vector_6">
<mask id="path-7-outside-1_0_1" maskUnits="userSpaceOnUse" x="0" y="-1" width="26" height="11" fill="black">
<rect fill="white" y="-1" width="26" height="11"/>
<path d="M23.9935 6.98207V4.93407C23.9935 3.00735 22.1672 1.60418 20.3055 2.10061L4.17687 6.40157C2.89319 6.7439 2 7.90647 2 9.23503V9.91454"/>
</mask>
<path d="M20.3055 2.10061L19.7902 0.168142L19.7902 0.168144L20.3055 2.10061ZM4.17687 6.40157L3.66155 4.4691L3.66154 4.46911L4.17687 6.40157ZM25.9935 6.98207V4.93407H21.9935V6.98207H25.9935ZM25.9935 4.93407C25.9935 1.69331 22.9216 -0.666878 19.7902 0.168142L20.8208 4.03309C21.4128 3.87523 21.9935 4.32139 21.9935 4.93407H25.9935ZM19.7902 0.168144L3.66155 4.4691L4.6922 8.33404L20.8208 4.03308L19.7902 0.168144ZM3.66154 4.46911C1.50235 5.0449 0 7.00037 0 9.23503H4C4 8.81258 4.28402 8.44289 4.6922 8.33404L3.66154 4.46911ZM0 9.23503V9.91454H4V9.23503H0Z" fill="white" mask="url(#path-7-outside-1_0_1)"/>
</g>
</g>
</g>
</g>
</g>
</svg>
